<svg xmlns="http://www.w3.org/2000/svg" xmlns:xlink="http://www.w3.org/1999/xlink" width="1048" zoomAndPan="magnify" viewBox="0 0 786 300.749988" height="401" preserveAspectRatio="xMidYMid meet" version="1.0"><defs><g/><clipPath id="77b89a5f4f"><path d="M 37.804688 56.167969 L 119 56.167969 L 119 137 L 37.804688 137 Z M 37.804688 56.167969 " clip-rule="nonzero"/></clipPath><clipPath id="45adf9e206"><path d="M 39 57 L 135.222656 57 L 135.222656 182 L 39 182 Z M 39 57 " clip-rule="nonzero"/></clipPath><clipPath id="1b550e90db"><path d="M 69 178 L 105 178 L 105 189.554688 L 69 189.554688 Z M 69 178 " clip-rule="nonzero"/></clipPath></defs><g fill="#414141" fill-opacity="1"><g transform="translate(217.252528, 251.727142)"><g><path d="M 0.664062 -23.386719 C 0.664062 -21.988281 1.621094 -20.996094 3.019531 -20.996094 L 13.445312 -20.996094 L 6.628906 -3.386719 C 6.480469 -3.019531 6.410156 -2.6875 6.410156 -2.285156 C 6.410156 -0.738281 7.515625 0.367188 9.0625 0.367188 C 10.164062 0.367188 11.085938 -0.109375 11.566406 -1.324219 L 19.816406 -22.355469 C 19.960938 -22.726562 20.035156 -23.019531 20.035156 -23.386719 C 20.035156 -24.714844 18.96875 -25.78125 17.640625 -25.78125 L 3.019531 -25.78125 C 1.621094 -25.78125 0.664062 -24.789062 0.664062 -23.386719 Z M 0.664062 -23.386719 "/></g></g></g><g fill="#414141" fill-opacity="1"><g transform="translate(237.874473, 251.727142)"><g><path d="M 6.667969 -25.78125 L 4.898438 -25.78125 C 3.128906 -25.78125 2.246094 -24.675781 2.246094 -22.984375 L 2.246094 -2.800781 C 2.246094 -1.105469 3.128906 0 4.898438 0 L 14.804688 0 C 22.136719 0 26.039062 -6.261719 26.039062 -12.890625 C 26.039062 -19.519531 22.0625 -25.78125 14.804688 -25.78125 Z M 7.585938 -4.789062 L 7.585938 -20.996094 L 13.664062 -20.996094 C 17.9375 -20.996094 20.699219 -17.53125 20.699219 -12.890625 C 20.699219 -8.25 18.046875 -4.789062 13.664062 -4.789062 Z M 7.585938 -4.789062 "/></g></g></g><g fill="#414141" fill-opacity="1"><g transform="translate(265.419498, 251.727142)"><g><path d="M 12.523438 -26.152344 C 12.484375 -26.152344 12.449219 -26.152344 12.449219 -26.152344 C 11.417969 -26.152344 10.460938 -25.523438 10.019531 -24.605469 L 0.921875 -3.460938 C 0.738281 -3.058594 0.664062 -2.6875 0.664062 -2.285156 C 0.664062 -0.808594 1.839844 0.367188 3.316406 0.367188 C 4.417969 0.367188 5.339844 -0.109375 5.746094 -1.179688 L 7.585938 -6.1875 L 17.3125 -6.1875 L 19.152344 -1.179688 C 19.558594 -0.109375 20.480469 0.367188 21.582031 0.367188 C 23.058594 0.367188 24.273438 -0.808594 24.273438 -2.285156 C 24.273438 -2.6875 24.160156 -3.058594 23.976562 -3.460938 L 14.878906 -24.605469 C 14.4375 -25.523438 13.554688 -26.113281 12.523438 -26.152344 Z M 15.800781 -10.351562 L 9.132812 -10.351562 L 12.484375 -19.445312 Z M 15.800781 -10.351562 "/></g></g></g><g fill="#414141" fill-opacity="1"><g transform="translate(290.239479, 251.727142)"><g><path d="M 3.242188 -26.152344 C 1.839844 -26.152344 0.664062 -24.972656 0.664062 -23.609375 C 0.664062 -23.167969 0.773438 -22.800781 0.996094 -22.394531 L 8.875 -7.808594 L 8.875 -2.429688 C 8.875 -0.738281 9.761719 0.367188 11.527344 0.367188 C 13.296875 0.367188 14.21875 -0.738281 14.21875 -2.429688 L 14.21875 -7.808594 L 22.0625 -22.394531 C 22.285156 -22.800781 22.429688 -23.203125 22.429688 -23.644531 C 22.429688 -25.007812 21.253906 -26.152344 19.851562 -26.152344 C 18.785156 -26.152344 18.011719 -25.671875 17.605469 -24.824219 L 11.527344 -12.226562 L 5.488281 -24.824219 C 5.082031 -25.671875 4.308594 -26.152344 3.242188 -26.152344 Z M 3.242188 -26.152344 "/></g></g></g><g fill="#414141" fill-opacity="1"><g transform="translate(313.218217, 251.727142)"><g><path d="M 4.273438 -26.152344 C 2.613281 -26.152344 1.472656 -24.898438 1.472656 -23.425781 C 1.472656 -23.316406 1.511719 -23.203125 1.511719 -23.09375 L 2.171875 -15.578125 C 2.320312 -14.328125 3.019531 -13.445312 4.273438 -13.445312 C 5.523438 -13.445312 6.261719 -14.328125 6.410156 -15.578125 L 7.070312 -23.09375 C 7.070312 -23.203125 7.109375 -23.316406 7.109375 -23.425781 C 7.109375 -24.898438 5.929688 -26.152344 4.273438 -26.152344 Z M 4.273438 -26.152344 "/></g></g></g><g fill="#414141" fill-opacity="1"><g transform="translate(321.76159, 251.727142)"><g><path d="M 11.492188 -26.152344 C 5.523438 -26.152344 2.503906 -23.058594 2.503906 -18.601562 C 2.503906 -14.289062 4.605469 -12.265625 8.324219 -11.234375 L 12.890625 -10.019531 C 15.25 -9.429688 15.949219 -8.398438 15.949219 -7.144531 C 15.949219 -5.414062 14.695312 -4.125 11.75 -4.125 C 8.875 -4.125 6.886719 -4.566406 4.933594 -5.820312 C 4.566406 -6.078125 4.125 -6.1875 3.757812 -6.1875 C 2.429688 -6.1875 1.546875 -5.265625 1.546875 -3.976562 C 1.546875 -3.460938 1.730469 -2.910156 2.171875 -2.46875 C 4.308594 -0.550781 7.515625 0.367188 11.859375 0.367188 C 18.269531 0.367188 21.289062 -2.984375 21.289062 -7.402344 C 21.289062 -11.417969 19.519531 -13.445312 15.46875 -14.546875 L 10.902344 -15.765625 C 8.839844 -16.28125 7.84375 -17.054688 7.84375 -18.785156 C 7.84375 -20.550781 9.28125 -21.65625 11.933594 -21.65625 C 13.773438 -21.65625 15.394531 -21.066406 16.867188 -19.960938 C 17.238281 -19.667969 17.679688 -19.59375 18.121094 -19.59375 C 19.59375 -19.59375 20.332031 -20.515625 20.332031 -21.804688 C 20.332031 -22.320312 20.183594 -22.761719 19.816406 -23.203125 C 18.121094 -24.898438 14.769531 -26.152344 11.492188 -26.152344 Z M 11.492188 -26.152344 "/></g></g></g><g fill="#414141" fill-opacity="1"><g transform="translate(344.445727, 251.727142)"><g/></g></g><g fill="#414141" fill-opacity="1"><g transform="translate(354.535754, 251.727142)"><g><path d="M 14.4375 -26.152344 C 6.667969 -26.152344 1.472656 -21.066406 1.472656 -12.890625 C 1.472656 -4.714844 6.667969 0.367188 14.4375 0.367188 C 18.046875 0.367188 20.882812 -0.847656 22.6875 -2.320312 C 23.277344 -2.800781 23.609375 -3.460938 23.609375 -4.234375 C 23.609375 -5.707031 22.726562 -6.59375 21.179688 -6.59375 C 20.699219 -6.59375 20.40625 -6.480469 20 -6.222656 C 18.378906 -5.046875 16.683594 -4.382812 14.4375 -4.382812 C 9.796875 -4.382812 6.8125 -7.515625 6.8125 -12.890625 C 6.8125 -18.269531 9.796875 -21.398438 14.4375 -21.398438 C 16.683594 -21.398438 18.378906 -20.738281 20 -19.558594 C 20.40625 -19.300781 20.699219 -19.1875 21.179688 -19.1875 C 22.726562 -19.1875 23.609375 -20.074219 23.609375 -21.546875 C 23.609375 -22.320312 23.277344 -22.984375 22.6875 -23.460938 C 20.882812 -24.933594 18.046875 -26.152344 14.4375 -26.152344 Z M 14.4375 -26.152344 "/></g></g></g><g fill="#414141" fill-opacity="1"><g transform="translate(379.650336, 251.727142)"><g><path d="M 18.636719 -15.285156 L 7.585938 -15.285156 L 7.585938 -23.351562 C 7.585938 -25.046875 6.667969 -26.152344 4.898438 -26.152344 C 3.128906 -26.152344 2.246094 -25.046875 2.246094 -23.351562 L 2.246094 -2.429688 C 2.246094 -0.738281 3.128906 0.367188 4.898438 0.367188 C 6.667969 0.367188 7.585938 -0.738281 7.585938 -2.429688 L 7.585938 -10.496094 L 18.636719 -10.496094 L 18.636719 -2.429688 C 18.636719 -0.738281 19.59375 0.367188 21.363281 0.367188 C 23.128906 0.367188 24.015625 -0.738281 24.015625 -2.429688 L 24.015625 -23.351562 C 24.015625 -25.046875 23.128906 -26.152344 21.363281 -26.152344 C 19.59375 -26.152344 18.636719 -25.046875 18.636719 -23.351562 Z M 18.636719 -15.285156 "/></g></g></g><g fill="#414141" fill-opacity="1"><g transform="translate(405.869669, 251.727142)"><g><path d="M 12.523438 -26.152344 C 12.484375 -26.152344 12.449219 -26.152344 12.449219 -26.152344 C 11.417969 -26.152344 10.460938 -25.523438 10.019531 -24.605469 L 0.921875 -3.460938 C 0.738281 -3.058594 0.664062 -2.6875 0.664062 -2.285156 C 0.664062 -0.808594 1.839844 0.367188 3.316406 0.367188 C 4.417969 0.367188 5.339844 -0.109375 5.746094 -1.179688 L 7.585938 -6.1875 L 17.3125 -6.1875 L 19.152344 -1.179688 C 19.558594 -0.109375 20.480469 0.367188 21.582031 0.367188 C 23.058594 0.367188 24.273438 -0.808594 24.273438 -2.285156 C 24.273438 -2.6875 24.160156 -3.058594 23.976562 -3.460938 L 14.878906 -24.605469 C 14.4375 -25.523438 13.554688 -26.113281 12.523438 -26.152344 Z M 15.800781 -10.351562 L 9.132812 -10.351562 L 12.484375 -19.445312 Z M 15.800781 -10.351562 "/></g></g></g><g fill="#414141" fill-opacity="1"><g transform="translate(430.689638, 251.727142)"><g><path d="M 4.898438 -26.152344 C 3.128906 -26.152344 2.246094 -25.046875 2.246094 -23.351562 L 2.246094 -2.800781 C 2.246094 -1.105469 3.128906 0 4.898438 0 L 17.898438 0 C 19.226562 0 20.332031 -1.066406 20.332031 -2.394531 C 20.332031 -3.71875 19.226562 -4.789062 17.898438 -4.789062 L 7.585938 -4.789062 L 7.585938 -23.351562 C 7.585938 -25.046875 6.667969 -26.152344 4.898438 -26.152344 Z M 4.898438 -26.152344 "/></g></g></g><g fill="#414141" fill-opacity="1"><g transform="translate(451.532533, 251.727142)"><g><path d="M 4.898438 -26.152344 C 3.128906 -26.152344 2.246094 -25.046875 2.246094 -23.351562 L 2.246094 -2.800781 C 2.246094 -1.105469 3.128906 0 4.898438 0 L 17.898438 0 C 19.226562 0 20.332031 -1.066406 20.332031 -2.394531 C 20.332031 -3.71875 19.226562 -4.789062 17.898438 -4.789062 L 7.585938 -4.789062 L 7.585938 -23.351562 C 7.585938 -25.046875 6.667969 -26.152344 4.898438 -26.152344 Z M 4.898438 -26.152344 "/></g></g></g><g fill="#414141" fill-opacity="1"><g transform="translate(472.375427, 251.727142)"><g><path d="M 4.933594 -25.78125 C 3.167969 -25.78125 2.246094 -24.675781 2.246094 -22.984375 L 2.246094 -2.800781 C 2.246094 -1.105469 3.167969 0 4.933594 0 L 18.121094 0 C 19.300781 0 20.332031 -1.03125 20.332031 -2.210938 C 20.332031 -3.386719 19.300781 -4.417969 18.121094 -4.417969 L 7.585938 -4.417969 L 7.585938 -10.679688 L 14.4375 -10.679688 C 15.617188 -10.679688 16.648438 -11.710938 16.648438 -12.890625 C 16.648438 -14.070312 15.617188 -15.101562 14.4375 -15.101562 L 7.585938 -15.101562 L 7.585938 -21.363281 L 18.121094 -21.363281 C 19.300781 -21.363281 20.332031 -22.394531 20.332031 -23.574219 C 20.332031 -24.75 19.300781 -25.78125 18.121094 -25.78125 Z M 4.933594 -25.78125 "/></g></g></g><g fill="#414141" fill-opacity="1"><g transform="translate(493.807523, 251.727142)"><g><path d="M 4.898438 -26.113281 C 3.425781 -26.113281 2.246094 -24.972656 2.246094 -23.5 L 2.246094 -2.285156 C 2.246094 -0.808594 3.425781 0.367188 4.898438 0.367188 C 6.371094 0.367188 7.585938 -0.808594 7.585938 -2.285156 L 7.585938 -16.683594 L 19.300781 -0.589844 C 19.777344 0.0351562 20.550781 0.332031 21.363281 0.332031 C 22.835938 0.332031 24.015625 -0.808594 24.015625 -2.285156 L 24.015625 -23.5 C 24.015625 -24.972656 22.835938 -26.152344 21.363281 -26.152344 C 19.851562 -26.152344 18.671875 -24.972656 18.671875 -23.5 L 18.671875 -9.097656 L 6.960938 -25.191406 C 6.480469 -25.820312 5.707031 -26.113281 4.898438 -26.113281 Z M 4.898438 -26.113281 "/></g></g></g><g fill="#414141" fill-opacity="1"><g transform="translate(520.026868, 251.727142)"><g><path d="M 14.511719 -26.152344 C 6.777344 -26.152344 1.546875 -21.066406 1.546875 -12.890625 C 1.546875 -5.007812 6.445312 0.367188 14.511719 0.367188 C 18.785156 0.367188 21.804688 -1.03125 24.089844 -3.535156 C 24.972656 -4.492188 25.414062 -5.15625 25.414062 -6.628906 L 25.414062 -12.449219 C 25.414062 -14.03125 24.417969 -15.101562 22.726562 -15.101562 L 14.660156 -15.101562 C 13.371094 -15.101562 12.375 -14.144531 12.375 -12.890625 C 12.375 -11.640625 13.371094 -10.679688 14.660156 -10.679688 L 20.035156 -10.679688 L 20.035156 -6.335938 C 18.785156 -4.933594 16.980469 -4.125 14.511719 -4.125 C 9.6875 -4.125 6.925781 -7.515625 6.925781 -12.890625 C 6.925781 -18.34375 9.722656 -21.65625 14.511719 -21.65625 C 17.605469 -21.65625 19.59375 -20.699219 20.847656 -20.035156 C 21.105469 -19.890625 21.363281 -19.890625 21.65625 -19.890625 C 22.910156 -19.890625 23.757812 -20.625 23.757812 -21.953125 C 23.757812 -22.761719 23.425781 -23.425781 22.6875 -23.867188 C 20.921875 -25.121094 18.230469 -26.152344 14.511719 -26.152344 Z M 14.511719 -26.152344 "/></g></g></g><g fill="#414141" fill-opacity="1"><g transform="translate(546.909053, 251.727142)"><g><path d="M 4.933594 -25.78125 C 3.167969 -25.78125 2.246094 -24.675781 2.246094 -22.984375 L 2.246094 -2.800781 C 2.246094 -1.105469 3.167969 0 4.933594 0 L 18.121094 0 C 19.300781 0 20.332031 -1.03125 20.332031 -2.210938 C 20.332031 -3.386719 19.300781 -4.417969 18.121094 -4.417969 L 7.585938 -4.417969 L 7.585938 -10.679688 L 14.4375 -10.679688 C 15.617188 -10.679688 16.648438 -11.710938 16.648438 -12.890625 C 16.648438 -14.070312 15.617188 -15.101562 14.4375 -15.101562 L 7.585938 -15.101562 L 7.585938 -21.363281 L 18.121094 -21.363281 C 19.300781 -21.363281 20.332031 -22.394531 20.332031 -23.574219 C 20.332031 -24.75 19.300781 -25.78125 18.121094 -25.78125 Z M 4.933594 -25.78125 "/></g></g></g><g fill="#c6b5d8" fill-opacity="1"><g transform="translate(571.233305, 187.945587)"><g><path d="M 20.511719 -118.851562 C 9.515625 -118.589844 4.019531 -111.457031 4.273438 -100.792969 L 6.285156 -16.152344 C 6.53125 -5.824219 12.367188 1.371094 23.367188 1.113281 C 34.363281 0.851562 39.851562 -6.617188 39.605469 -16.945312 L 37.59375 -101.585938 C 37.339844 -112.25 31.511719 -119.113281 20.511719 -118.851562 Z M 20.511719 -118.851562 "/></g></g></g><g fill="#f5bfbf" fill-opacity="1"><g transform="translate(286.299839, 208.563033)"><g><path d="M -120.125 -23.6875 C -120.125 -12.519531 -113.019531 -6.765625 -102.191406 -6.765625 L -16.242188 -6.765625 C -5.753906 -6.765625 1.691406 -12.519531 1.691406 -23.6875 C 1.691406 -34.851562 -5.753906 -40.605469 -16.242188 -40.605469 L -102.191406 -40.605469 C -113.019531 -40.605469 -120.125 -34.851562 -120.125 -23.6875 Z M -120.125 -23.6875 "/></g></g></g><g fill="#cee0e6" fill-opacity="1"><g transform="translate(476.057949, 190.507117)"><g><path d="M -3.070312 -109.761719 C -12.839844 -107.550781 -16.460938 -100.195312 -14.316406 -90.726562 L 2.703125 -15.546875 C 4.78125 -6.371094 11.285156 -1 21.054688 -3.210938 C 30.820312 -5.421875 34.378906 -13.074219 32.300781 -22.25 L 15.28125 -97.425781 C 13.136719 -106.898438 6.695312 -111.972656 -3.070312 -109.761719 Z M -3.070312 -109.761719 "/></g></g></g><path stroke-linecap="butt" transform="matrix(0.71314, 0, 0, 0.71314, 124.102859, 23.825442)" fill="none" stroke-linejoin="miter" d="M 58.553012 78.710438 L 89.583238 91.818175 C 92.984786 93.423092 95.170322 93.614806 96.578048 92.645282 C 97.744763 91.626461 98.325381 90.070842 98.325381 87.885306 L 98.325381 69.190485 C 98.566393 66.177842 98.133667 64.189497 96.966953 63.214496 C 95.559227 62.003962 93.373691 60.787949 89.583238 59.429521 L 58.553012 46.267009 C 54.768037 45.297485 52.38531 45.297485 51.415787 46.267009 C 50.008061 47.28583 49.619156 49.279652 49.810869 52.434711 L 49.810869 68.363378 C 49.810869 71.764926 50.396965 73.950462 51.804691 75.30889 C 52.774215 76.716616 55.200762 77.735437 58.553012 78.710438 Z M 163.206762 150.920759 L 163.206762 143.537044 L 167.769547 143.537044 L 167.769547 150.920759 Z M 97.936476 109.351759 C 97.744763 107.357937 97.158667 105.561306 95.750941 104.400069 C 94.343214 102.986865 92.787595 102.406247 90.79925 102.406247 L 57.583489 102.406247 C 55.397953 102.406247 53.793036 102.986865 52.38531 104.400069 C 51.218595 105.561306 50.396965 107.357937 50.396965 109.351759 L 50.396965 128.435485 C 50.396965 130.429307 51.218595 132.028746 52.38531 133.436472 C 53.793036 134.794901 55.397953 135.622008 57.583489 135.819199 L 72.10443 135.819199 C 74.481679 135.819199 75.648394 137.177628 75.648394 139.801366 L 75.648394 167.430044 C 75.062298 170.004484 73.90106 172.19002 71.715525 173.986651 L 58.553012 184.13652 C 53.793036 187.340877 51.6075 190.495936 51.6075 194.286389 L 51.6075 213.567306 C 51.6075 215.944556 51.996405 217.741186 52.774215 218.760008 C 53.793036 219.729531 55.786858 220.556639 58.750204 220.75383 C 60.738548 220.556639 63.115798 219.148912 65.547822 216.771663 L 77.05612 207.399604 C 78.852751 212.2034 81.618905 215.363937 85.020453 217.549473 C 88.22481 219.729531 93.373691 220.75383 100.510917 220.75383 L 221.476761 220.75383 C 223.662297 220.945543 225.267214 220.556639 226.433928 219.729531 C 227.841654 218.760008 228.422273 217.352282 228.619464 215.363937 L 228.619464 195.064199 C 228.619464 193.070377 228.033368 191.273746 226.822833 189.915318 C 225.656119 188.507592 223.859488 188.118687 221.476761 188.118687 L 110.469072 188.118687 C 105.709096 188.118687 102.307548 187.340877 100.751928 185.544246 C 99.930298 184.91433 99.344202 184.13652 98.955297 183.166997 L 124.212203 183.166997 C 127.367262 183.166997 129.79381 182.531603 130.960524 181.562079 C 131.979345 180.543258 132.559964 179.18483 132.559964 176.752805 L 132.559964 69.771104 L 152.229786 69.771104 L 152.229786 75.549901 L 144.895369 75.549901 C 141.888203 75.549901 139.702667 76.135997 138.535953 77.297234 C 137.31994 78.513247 136.739322 80.895974 136.739322 84.680949 C 136.739322 87.644295 137.31994 89.440926 138.535953 90.848652 C 139.702667 92.256378 141.888203 93.034187 144.895369 93.034187 L 152.229786 93.034187 L 152.229786 98.812985 L 144.895369 98.812985 C 141.888203 98.812985 139.702667 99.393603 138.535953 100.609616 C 137.31994 101.77633 136.739322 104.400069 136.739322 107.944033 C 136.739322 110.951199 137.31994 112.945021 138.535953 114.111735 C 139.702667 115.519461 141.888203 116.297271 144.895369 116.297271 L 185.253834 116.297271 C 188.649904 116.297271 191.032631 115.519461 192.243166 114.111735 C 193.218167 112.945021 193.798785 110.951199 193.798785 107.944033 C 193.798785 104.400069 193.218167 101.77633 192.243166 100.609616 C 191.032631 99.393603 188.649904 98.812985 185.253834 98.812985 L 178.308321 98.812985 L 178.308321 93.034187 L 185.253834 93.034187 C 188.649904 93.034187 191.032631 92.256378 192.243166 90.848652 C 193.218167 89.440926 193.798785 87.644295 193.798785 84.680949 C 193.798785 80.895974 193.218167 78.513247 192.243166 77.297234 C 191.032631 76.135997 188.649904 75.549901 185.253834 75.549901 L 178.308321 75.549901 L 178.308321 69.771104 L 198.021964 69.771104 L 198.021964 153.495199 C 198.021964 156.310651 196.614237 157.669079 193.607072 157.669079 L 193.607072 130.429307 C 193.607072 127.657675 193.020976 125.472139 192.051452 124.064413 C 190.83544 122.656687 188.649904 122.076069 185.445547 122.076069 L 145.481465 122.076069 C 143.098738 122.076069 140.913202 122.848401 139.505476 124.453318 C 137.949857 126.058235 137.128227 127.854866 136.931035 129.843211 L 136.931035 163.836782 C 136.931035 166.849425 137.517131 168.83777 138.727666 170.201676 C 139.894381 171.609402 142.129214 172.19002 145.09256 172.19002 L 184.476024 172.19002 L 184.476024 176.752805 C 184.476024 179.18483 184.864929 180.543258 186.075464 181.562079 C 187.242178 182.531603 189.427714 183.166997 192.632071 183.166997 L 217.691785 183.166997 C 221.093333 183.166997 223.470583 182.531603 224.637297 181.562079 C 225.656119 180.543258 226.045024 179.18483 226.045024 176.752805 L 226.045024 54.039628 C 226.045024 50.884569 225.656119 48.699033 224.637297 47.674735 C 223.470583 46.902402 221.093333 46.267009 217.691785 46.267009 L 111.487894 46.267009 C 109.691263 46.267009 107.894632 47.094116 106.486906 48.501842 C 105.123 50.249175 104.30137 52.045806 104.30137 54.231342 L 104.30137 153.495199 C 104.30137 156.310651 102.937464 157.669079 100.122012 157.669079 L 97.936476 157.669079 Z M 267.805737 103.961866 L 309.763641 103.961866 L 309.763641 113.333925 L 257.655868 113.333925 C 255.470332 113.333925 253.865415 113.72283 252.506987 115.130556 C 251.099261 116.488985 250.513164 118.285616 250.513164 120.279438 L 250.513164 148.538032 C 250.513164 150.723567 251.099261 152.328485 252.506987 153.686913 C 253.865415 155.094639 255.470332 155.680735 257.655868 155.872449 L 309.763641 155.872449 L 309.763641 164.663889 C 309.56645 169.615579 308.208022 173.208841 305.195379 175.591568 C 302.232033 177.968818 298.638771 179.18483 294.075986 178.987639 L 267.997451 178.987639 C 266.009106 178.987639 264.453487 179.573735 263.04576 180.734972 C 261.638034 182.142698 261.051938 183.939329 260.860225 186.124865 L 260.860225 214.388936 C 261.051938 216.382758 261.638034 218.130091 263.04576 219.537817 C 264.453487 220.945543 266.009106 221.531639 267.997451 221.531639 L 301.021498 221.531639 C 324.279105 221.531639 341.034879 216.136269 351.13545 205.794686 C 361.477033 195.694115 366.675212 178.987639 366.483498 155.872449 L 418.005176 155.872449 C 420.190711 155.680735 421.987342 155.094639 423.345771 153.686913 C 424.753497 152.328485 425.142401 150.723567 425.142401 148.538032 L 425.142401 120.279438 C 425.142401 118.285616 424.753497 116.488985 423.345771 115.130556 C 421.987342 113.72283 420.190711 113.333925 418.005176 113.333925 L 366.483498 113.333925 L 366.483498 103.961866 L 407.22539 103.961866 C 409.460224 103.961866 411.448568 103.184056 412.806997 101.579139 C 414.2202 100.171413 414.992532 98.232366 414.992532 95.997533 L 414.992532 51.465188 C 414.992532 49.279652 414.2202 47.483021 412.806997 46.267009 C 411.448568 44.90858 409.460224 44.327962 407.22539 44.327962 L 373.040105 44.327962 C 371.046283 44.327962 369.441366 44.90858 368.082938 46.267009 C 366.872403 47.483021 366.094593 49.279652 365.897402 51.465188 L 365.897402 53.842437 C 365.897402 55.836259 365.075772 57.63289 363.662568 59.040616 C 362.30414 60.399044 360.315796 61.226152 358.321974 61.226152 L 267.805737 61.226152 C 265.811915 61.417866 264.212475 62.195675 262.848569 63.603401 C 261.440843 65.011127 260.860225 66.763938 260.663034 68.949474 L 260.663034 95.997533 C 260.860225 98.232366 261.440843 100.171413 262.848569 101.579139 C 264.212475 103.184056 265.811915 103.961866 267.805737 103.961866 Z M 486.23333 93.423092 L 488.80777 106.580127 L 475.694556 106.580127 C 474.28683 106.580127 472.879104 107.166223 471.904103 108.332938 C 470.885281 109.740664 470.304663 111.14839 470.304663 112.747829 L 470.304663 143.537044 C 470.304663 144.94477 470.885281 146.352496 471.904103 147.130306 C 472.879104 148.149127 474.28683 148.735223 475.694556 148.926936 L 496.574912 148.926936 L 508.669306 214.975032 C 509.299222 217.352282 510.077032 218.957199 511.287567 219.926722 C 512.454281 220.75383 514.448103 221.142735 517.263555 221.142735 L 547.855578 221.142735 C 549.849401 221.142735 551.44884 220.75383 552.22665 219.729531 C 552.856566 218.760008 553.053757 217.160568 552.467661 214.586127 L 540.526639 148.926936 L 561.598709 148.926936 L 561.598709 174.375556 C 561.795901 175.980473 562.376519 177.388199 563.39534 178.357722 C 564.370341 179.376544 565.778067 179.96264 567.185793 179.96264 L 597.197198 179.96264 C 598.993829 179.96264 600.401555 179.376544 601.568269 178.357722 C 602.58709 177.388199 603.167709 175.980473 603.167709 174.375556 L 603.167709 112.117913 C 603.167709 110.518473 602.58709 109.154568 601.568269 108.135746 C 600.401555 107.166223 598.993829 106.580127 597.197198 106.580127 L 532.562306 106.580127 L 529.987865 93.423092 C 529.352471 90.656938 528.580139 88.860307 527.605138 88.082497 C 526.586317 87.25539 524.400781 86.866485 521.004711 86.866485 L 492.154543 86.866485 C 489.388389 86.866485 487.591758 87.447103 486.813948 88.471402 C 486.036138 89.243734 485.795127 91.040365 486.23333 93.423092 Z M 754.725576 139.801366 C 754.725576 150.531854 752.737231 157.477366 748.557874 161.262341 C 744.575707 164.855603 737.827386 166.652234 727.874708 166.411223 L 718.546469 166.411223 L 718.546469 53.842437 C 718.354755 51.656901 717.724839 49.86027 716.360933 48.260831 C 714.953207 47.094116 713.353768 46.267009 711.359945 46.075295 L 669.988137 46.075295 C 667.994315 46.267009 666.197684 47.094116 665.030969 48.260831 C 663.623243 49.86027 662.845434 51.656901 662.845434 53.842437 L 662.845434 214.147925 C 662.845434 216.136269 663.623243 217.9329 665.030969 219.346104 C 666.197684 220.75383 667.994315 221.334448 669.988137 221.531639 L 742.779076 221.531639 C 764.875445 221.531639 781.390208 216.574472 792.312409 206.232889 C 803.289386 196.08302 808.438267 179.376544 808.049362 156.06964 L 808.049362 104.400069 C 808.049362 102.165235 807.271552 100.417902 806.05554 99.004699 C 804.647814 97.596973 802.659469 97.016354 800.276742 97.016354 L 761.9121 97.016354 C 759.923755 97.016354 758.318838 97.596973 756.911112 99.004699 C 755.744397 100.417902 754.922767 102.165235 754.725576 104.400069 Z M 754.725576 139.801366 " stroke="#414141" stroke-width="4.10256" stroke-opacity="1" stroke-miterlimit="4"/><g clip-path="url(#77b89a5f4f)"><path fill="#ffbd59" d="M 118.582031 96.53125 C 118.582031 97.851562 118.519531 99.171875 118.386719 100.488281 C 118.257812 101.800781 118.066406 103.109375 117.808594 104.40625 C 117.550781 105.703125 117.230469 106.980469 116.847656 108.246094 C 116.460938 109.511719 116.019531 110.753906 115.511719 111.976562 C 115.007812 113.199219 114.441406 114.390625 113.820312 115.558594 C 113.199219 116.722656 112.519531 117.855469 111.785156 118.957031 C 111.050781 120.054688 110.265625 121.113281 109.425781 122.136719 C 108.589844 123.160156 107.703125 124.136719 106.769531 125.070312 C 105.835938 126.007812 104.859375 126.894531 103.835938 127.730469 C 102.816406 128.570312 101.753906 129.355469 100.65625 130.089844 C 99.558594 130.824219 98.425781 131.503906 97.261719 132.128906 C 96.097656 132.75 94.902344 133.316406 93.683594 133.820312 C 92.464844 134.328125 91.222656 134.773438 89.957031 135.15625 C 88.691406 135.539062 87.414062 135.859375 86.117188 136.117188 C 84.820312 136.375 83.515625 136.570312 82.203125 136.699219 C 80.886719 136.828125 79.570312 136.894531 78.25 136.894531 C 76.925781 136.894531 75.609375 136.828125 74.296875 136.699219 C 72.980469 136.570312 71.675781 136.375 70.378906 136.117188 C 69.085938 135.859375 67.804688 135.539062 66.539062 135.15625 C 65.277344 134.773438 64.035156 134.328125 62.8125 133.820312 C 61.59375 133.316406 60.398438 132.75 59.234375 132.128906 C 58.070312 131.503906 56.9375 130.824219 55.839844 130.089844 C 54.742188 129.355469 53.683594 128.570312 52.660156 127.730469 C 51.640625 126.894531 50.660156 126.007812 49.726562 125.070312 C 48.792969 124.136719 47.90625 123.160156 47.070312 122.136719 C 46.230469 121.113281 45.445312 120.054688 44.710938 118.957031 C 43.976562 117.855469 43.300781 116.722656 42.675781 115.558594 C 42.054688 114.390625 41.488281 113.199219 40.984375 111.976562 C 40.480469 110.753906 40.035156 109.511719 39.652344 108.246094 C 39.269531 106.980469 38.945312 105.703125 38.6875 104.40625 C 38.429688 103.109375 38.238281 101.800781 38.109375 100.488281 C 37.980469 99.171875 37.914062 97.851562 37.914062 96.53125 C 37.914062 95.207031 37.980469 93.890625 38.109375 92.574219 C 38.238281 91.257812 38.429688 89.953125 38.6875 88.65625 C 38.945312 87.359375 39.269531 86.078125 39.652344 84.8125 C 40.035156 83.546875 40.480469 82.304688 40.984375 81.082031 C 41.488281 79.863281 42.054688 78.667969 42.675781 77.503906 C 43.300781 76.335938 43.976562 75.203125 44.710938 74.105469 C 45.445312 73.007812 46.230469 71.945312 47.070312 70.925781 C 47.90625 69.902344 48.792969 68.921875 49.726562 67.988281 C 50.660156 67.054688 51.640625 66.167969 52.660156 65.328125 C 53.683594 64.492188 54.742188 63.703125 55.839844 62.96875 C 56.9375 62.234375 58.070312 61.554688 59.234375 60.933594 C 60.398438 60.308594 61.59375 59.746094 62.8125 59.238281 C 64.035156 58.734375 65.277344 58.289062 66.539062 57.90625 C 67.804688 57.519531 69.085938 57.199219 70.378906 56.941406 C 71.675781 56.683594 72.980469 56.492188 74.296875 56.359375 C 75.609375 56.230469 76.925781 56.167969 78.25 56.167969 C 79.570312 56.167969 80.886719 56.230469 82.203125 56.359375 C 83.515625 56.492188 84.820312 56.683594 86.117188 56.941406 C 87.414062 57.199219 88.691406 57.519531 89.957031 57.90625 C 91.222656 58.289062 92.464844 58.734375 93.683594 59.238281 C 94.902344 59.746094 96.097656 60.308594 97.261719 60.933594 C 98.425781 61.554688 99.558594 62.234375 100.65625 62.96875 C 101.753906 63.703125 102.816406 64.492188 103.835938 65.328125 C 104.859375 66.167969 105.835938 67.054688 106.769531 67.988281 C 107.703125 68.921875 108.589844 69.902344 109.425781 70.925781 C 110.265625 71.945312 111.050781 73.007812 111.785156 74.105469 C 112.519531 75.203125 113.199219 76.335938 113.820312 77.503906 C 114.441406 78.667969 115.007812 79.863281 115.511719 81.082031 C 116.019531 82.304688 116.460938 83.546875 116.847656 84.8125 C 117.230469 86.078125 117.550781 87.359375 117.808594 88.65625 C 118.066406 89.953125 118.257812 91.257812 118.386719 92.574219 C 118.519531 93.890625 118.582031 95.207031 118.582031 96.53125 Z M 118.582031 96.53125 " fill-opacity="1" fill-rule="nonzero"/></g><g clip-path="url(#45adf9e206)"><path fill="#04182d" d="M 109.941406 181.539062 L 64.5625 181.539062 C 63.792969 181.539062 63.167969 180.914062 63.167969 180.140625 L 63.167969 154.214844 C 63.167969 149.746094 61.101562 145.539062 57.503906 142.675781 C 44.589844 132.410156 37.925781 116.429688 39.679688 99.9375 C 42.085938 77.269531 61.078125 58.988281 83.851562 57.410156 C 97.28125 56.480469 110.089844 61.007812 119.890625 70.164062 C 129.558594 79.191406 135.105469 91.953125 135.105469 105.179688 C 135.105469 119.886719 128.488281 133.566406 116.953125 142.714844 C 113.382812 145.546875 111.335938 149.738281 111.335938 154.210938 L 111.335938 180.140625 C 111.335938 180.914062 110.710938 181.539062 109.941406 181.539062 Z M 65.960938 178.746094 L 108.542969 178.746094 L 108.542969 154.210938 C 108.542969 148.878906 110.976562 143.890625 115.21875 140.527344 C 126.082031 131.910156 132.3125 119.027344 132.3125 105.179688 C 132.3125 92.726562 127.089844 80.707031 117.988281 72.203125 C 108.757812 63.585938 96.714844 59.328125 84.042969 60.199219 C 62.601562 61.683594 44.722656 78.894531 42.453125 100.234375 C 40.804688 115.769531 47.078125 130.820312 59.238281 140.492188 C 63.511719 143.886719 65.960938 148.886719 65.960938 154.214844 Z M 65.960938 178.746094 " fill-opacity="1" fill-rule="nonzero"/></g><g clip-path="url(#1b550e90db)"><path fill="#04182d" d="M 86.910156 189.554688 C 77.003906 189.554688 69.242188 185.421875 69.242188 180.140625 C 69.242188 179.371094 69.867188 178.746094 70.636719 178.746094 C 71.40625 178.746094 72.03125 179.371094 72.03125 180.140625 C 72.03125 183.273438 78.144531 186.761719 86.910156 186.761719 C 95.679688 186.761719 101.792969 183.273438 101.792969 180.140625 C 101.792969 179.371094 102.417969 178.746094 103.1875 178.746094 C 103.957031 178.746094 104.582031 179.371094 104.582031 180.140625 C 104.582031 185.421875 96.820312 189.554688 86.910156 189.554688 Z M 86.910156 189.554688 " fill-opacity="1" fill-rule="nonzero"/></g><path fill="#04182d" d="M 59.160156 155.609375 C 58.433594 155.609375 57.820312 155.046875 57.769531 154.3125 C 57.71875 153.542969 58.296875 152.875 59.066406 152.820312 L 115.246094 148.925781 C 116.035156 148.878906 116.679688 149.453125 116.734375 150.222656 C 116.785156 150.992188 116.207031 151.660156 115.4375 151.710938 L 59.257812 155.609375 C 59.226562 155.609375 59.191406 155.609375 59.160156 155.609375 Z M 59.160156 155.609375 " fill-opacity="1" fill-rule="nonzero"/><path fill="#04182d" d="M 59.160156 164.542969 C 58.433594 164.542969 57.820312 163.980469 57.769531 163.242188 C 57.71875 162.472656 58.296875 161.804688 59.066406 161.753906 L 115.246094 157.859375 C 116.035156 157.816406 116.679688 158.386719 116.734375 159.152344 C 116.785156 159.921875 116.207031 160.589844 115.4375 160.644531 L 59.257812 164.539062 C 59.226562 164.542969 59.191406 164.542969 59.160156 164.542969 Z M 59.160156 164.542969 " fill-opacity="1" fill-rule="nonzero"/><path fill="#04182d" d="M 59.160156 173.476562 C 58.433594 173.476562 57.820312 172.914062 57.769531 172.175781 C 57.71875 171.40625 58.296875 170.738281 59.066406 170.6875 L 115.246094 166.789062 C 116.035156 166.738281 116.679688 167.316406 116.734375 168.085938 C 116.785156 168.855469 116.207031 169.523438 115.4375 169.574219 L 59.257812 173.472656 C 59.226562 173.472656 59.191406 173.476562 59.160156 173.476562 Z M 59.160156 173.476562 " fill-opacity="1" fill-rule="nonzero"/></svg>