<svg xmlns="http://www.w3.org/2000/svg" xmlns:xlink="http://www.w3.org/1999/xlink" width="1242" zoomAndPan="magnify" viewBox="0 0 931.5 2015.999945" height="2688" preserveAspectRatio="xMidYMid meet" version="1.0"><defs><clipPath id="57317a86ad"><path d="M 0 0.539062 L 931 0.539062 L 931 2015.457031 L 0 2015.457031 Z M 0 0.539062 " clip-rule="nonzero"/></clipPath><clipPath id="050a04ca06"><path d="M 95 1536 L 239 1536 L 239 1679 L 95 1679 Z M 95 1536 " clip-rule="nonzero"/></clipPath><clipPath id="a2a99501c2"><path d="M 287.5 1623.449219 L 182.496094 1728.457031 L 92.871094 1638.828125 L 197.875 1533.824219 Z M 287.5 1623.449219 " clip-rule="nonzero"/></clipPath><clipPath id="9a60568046"><path d="M 288.273438 1624.222656 L 183.269531 1729.230469 L 92.050781 1638.011719 L 197.058594 1533.007812 Z M 288.273438 1624.222656 " clip-rule="nonzero"/></clipPath><clipPath id="6162375397"><path d="M 692 244 L 791 244 L 791 343 L 692 343 Z M 692 244 " clip-rule="nonzero"/></clipPath><clipPath id="d2bc5d1cd4"><path d="M 730.175781 376.128906 L 658.050781 304.003906 L 719.570312 242.484375 L 791.695312 314.609375 Z M 730.175781 376.128906 " clip-rule="nonzero"/></clipPath><clipPath id="300a22504a"><path d="M 729.644531 376.660156 L 657.519531 304.535156 L 720.097656 241.957031 L 792.222656 314.082031 Z M 729.644531 376.660156 " clip-rule="nonzero"/></clipPath><clipPath id="a55cf9cb6d"><path d="M 124 688 L 250 688 L 250 824 L 124 824 Z M 124 688 " clip-rule="nonzero"/></clipPath><clipPath id="d44874f682"><path d="M 256.867188 701.246094 L 241.132812 836.082031 L 124.175781 822.433594 L 139.910156 687.601562 Z M 256.867188 701.246094 " clip-rule="nonzero"/></clipPath><clipPath id="7ab975e14d"><path d="M 256.867188 701.246094 L 241.132812 836.082031 L 124.175781 822.433594 L 139.910156 687.601562 Z M 256.867188 701.246094 " clip-rule="nonzero"/></clipPath><clipPath id="94e655528b"><path d="M 738 1472 L 881 1472 L 881 1617 L 738 1617 Z M 738 1472 " clip-rule="nonzero"/></clipPath><clipPath id="97cd776e0a"><path d="M 701.746094 1496.78125 L 842.921875 1450.714844 L 882.242188 1571.210938 L 741.066406 1617.277344 Z M 701.746094 1496.78125 " clip-rule="nonzero"/></clipPath><clipPath id="167e064843"><path d="M 701.40625 1495.742188 L 842.582031 1449.671875 L 882.601562 1572.308594 L 741.425781 1618.375 Z M 701.40625 1495.742188 " clip-rule="nonzero"/></clipPath></defs><g clip-path="url(#57317a86ad)"><path fill="#ffffff" d="M 0 0.539062 L 931.5 0.539062 L 931.5 2024.039062 L 0 2024.039062 Z M 0 0.539062 " fill-opacity="1" fill-rule="nonzero"/><path fill="#ffffff" d="M 0 0.539062 L 931.5 0.539062 L 931.5 2016.539062 L 0 2016.539062 Z M 0 0.539062 " fill-opacity="1" fill-rule="nonzero"/><path fill="#f3f3f3" d="M 0 0.539062 L 931.5 0.539062 L 931.5 2016.539062 L 0 2016.539062 Z M 0 0.539062 " fill-opacity="1" fill-rule="nonzero"/></g><g clip-path="url(#050a04ca06)"><g clip-path="url(#a2a99501c2)"><g clip-path="url(#9a60568046)"><path fill="#c6b5d8" d="M 101.121094 1645.230469 L 229.375 1677.882812 L 229.402344 1677.859375 C 231.859375 1678.515625 234.585938 1677.910156 236.515625 1675.984375 C 238.246094 1674.253906 238.914062 1671.878906 238.566406 1669.632812 L 238.578125 1669.621094 L 238.554688 1669.535156 C 238.484375 1669.113281 238.367188 1668.699219 238.222656 1668.289062 L 204.265625 1542.019531 L 204.261719 1542.015625 C 203.988281 1540.632812 203.320312 1539.316406 202.246094 1538.242188 C 199.367188 1535.363281 194.703125 1535.363281 191.824219 1538.242188 L 97.285156 1632.777344 C 94.410156 1635.65625 94.410156 1640.324219 97.289062 1643.203125 C 98.375 1644.289062 99.714844 1644.960938 101.121094 1645.230469 Z M 101.121094 1645.230469 " fill-opacity="1" fill-rule="nonzero"/></g></g></g><g clip-path="url(#6162375397)"><g clip-path="url(#d2bc5d1cd4)"><g clip-path="url(#300a22504a)"><path fill="#f5bfbf" d="M 715.148438 248.179688 L 692.785156 336.207031 L 692.800781 336.222656 C 692.351562 337.910156 692.765625 339.785156 694.089844 341.109375 C 695.28125 342.296875 696.910156 342.757812 698.449219 342.519531 L 698.460938 342.527344 L 698.519531 342.511719 C 698.808594 342.460938 699.09375 342.382812 699.371094 342.28125 L 786.035156 319.023438 L 786.035156 319.019531 C 786.984375 318.832031 787.890625 318.375 788.625 317.640625 C 790.601562 315.664062 790.601562 312.460938 788.625 310.484375 L 723.695312 245.554688 C 721.71875 243.578125 718.515625 243.578125 716.539062 245.550781 C 715.792969 246.296875 715.332031 247.21875 715.148438 248.179688 Z M 715.148438 248.179688 " fill-opacity="1" fill-rule="nonzero"/></g></g></g><g clip-path="url(#a55cf9cb6d)"><g clip-path="url(#d44874f682)"><g clip-path="url(#7ab975e14d)"><path fill="#f0e9df" d="M 134.753906 822.460938 L 134.757812 822.460938 L 245.074219 773.121094 L 245.078125 773.089844 C 247.210938 772.167969 248.824219 770.1875 249.113281 767.710938 C 249.371094 765.488281 248.503906 763.40625 246.984375 761.996094 L 246.988281 761.980469 L 246.921875 761.929688 C 246.628906 761.667969 246.3125 761.4375 245.976562 761.226562 L 150.171875 689.976562 L 150.167969 689.976562 C 149.191406 689.140625 147.964844 688.574219 146.589844 688.414062 C 142.898438 687.984375 139.554688 690.628906 139.125 694.324219 L 124.960938 815.710938 C 124.53125 819.40625 127.171875 822.75 130.863281 823.179688 C 132.257812 823.34375 133.601562 823.066406 134.753906 822.460938 Z M 134.753906 822.460938 " fill-opacity="1" fill-rule="nonzero"/></g></g></g><g clip-path="url(#94e655528b)"><g clip-path="url(#97cd776e0a)"><g clip-path="url(#167e064843)"><path fill="#cee0e6" d="M 877.785156 1561.765625 L 778.222656 1474.574219 L 778.1875 1474.582031 C 776.292969 1472.882812 773.589844 1472.1875 770.996094 1473.03125 C 768.667969 1473.792969 766.996094 1475.605469 766.292969 1477.765625 L 766.273438 1477.769531 L 766.253906 1477.859375 C 766.128906 1478.265625 766.042969 1478.6875 765.988281 1479.117188 L 739.082031 1607.078125 L 739.082031 1607.082031 C 738.703125 1608.4375 738.699219 1609.917969 739.171875 1611.359375 C 740.433594 1615.226562 744.59375 1617.34375 748.464844 1616.078125 L 875.566406 1574.605469 C 879.433594 1573.339844 881.542969 1569.179688 880.28125 1565.308594 C 879.804688 1563.847656 878.914062 1562.640625 877.785156 1561.765625 Z M 877.785156 1561.765625 " fill-opacity="1" fill-rule="nonzero"/></g></g></g></svg>